<svg width="262" height="262" viewBox="0 0 262 262" fill="none" xmlns="http://www.w3.org/2000/svg">
<g clip-path="url(#clip0_6_110)">
<path d="M69.31 97.9561L69.2587 113.183L60.9652 113.347L60.848 148.15L69.1406 148.258L69.0885 163.757L60.7949 163.921C56.6257 163.935 53.0282 162.384 50.0025 159.267C46.9768 156.15 45.4709 152.507 45.485 148.338L45.6031 113.262C45.6171 109.093 47.1474 105.485 50.1938 102.439C53.2403 99.3924 56.8482 97.8621 61.0174 97.8481L69.31 97.9561ZM199.961 97.3803C204.13 97.3662 207.727 98.8722 210.753 101.898C213.779 104.924 215.285 108.522 215.271 112.691L215.153 147.767C215.139 151.936 213.609 155.544 210.563 158.59C207.516 161.637 203.908 163.167 199.739 163.181L191.582 163.209L191.634 147.71L199.927 147.818L200.045 112.742L191.751 112.906L191.803 97.4077L199.961 97.3803ZM100.336 89.4227L84.837 89.4749L84.5596 171.862L100.058 171.81L100.336 89.4227ZM176.469 89.1664L160.834 89.355L160.557 171.47L176.191 171.553L176.469 89.1664ZM145.362 121.899L115.589 121.864L115.53 139.265L145.304 139.029L145.362 121.899ZM176.385 73.8042C180.554 73.7902 184.174 75.3188 187.245 78.39C190.316 81.4612 191.845 85.0814 191.831 89.2506L191.554 171.366C191.54 175.535 189.987 179.166 186.895 182.257C183.803 185.349 180.173 186.902 176.004 186.916L160.505 186.969C156.336 186.983 152.738 185.477 149.712 182.451C146.686 179.425 145.18 175.827 145.194 171.658L145.252 154.528L115.342 154.629L115.421 171.622C115.407 175.791 113.854 179.422 110.762 182.514C107.67 185.606 104.04 187.159 99.8704 187.173L84.3719 187.225C80.2027 187.239 76.605 185.733 73.579 182.707C70.553 179.681 69.047 176.083 69.061 171.914L69.3384 89.5271C69.3524 85.3579 70.8827 81.75 73.9292 78.7035C76.9757 75.6571 80.5835 74.1268 84.7527 74.1127L100.251 74.0606C104.42 74.0465 108.041 75.5751 111.112 78.6463C114.183 81.7175 115.712 85.3377 115.698 89.5069L115.504 106.501L145.414 106.401L145.472 89.2707C145.486 85.1015 147.016 81.4937 150.062 78.4472C153.109 75.4007 156.717 73.8705 160.886 73.8564L176.385 73.8042Z" fill="#C7F705"/>
</g>
<defs>
<clipPath id="clip0_6_110">
<rect width="183.953" height="185.196" fill="white" transform="translate(130.075 261.028) rotate(-135)"/>
</clipPath>
</defs>
</svg>
