<svg width="38" height="38" viewBox="0 0 38 38" fill="none" xmlns="http://www.w3.org/2000/svg">
<path d="M15.8333 25.3334L25.3333 19L15.8333 12.6667V25.3334ZM19 34.8334C16.8097 34.8334 14.7514 34.4177 12.825 33.5865C10.8986 32.7552 9.22292 31.6271 7.79792 30.2021C6.37292 28.7771 5.2448 27.1014 4.41355 25.175C3.5823 23.2486 3.16667 21.1903 3.16667 19C3.16667 17.8653 3.28542 16.7504 3.52292 15.6552C3.76042 14.5601 4.10348 13.4979 4.55209 12.4688L7.00626 14.9229C6.79514 15.609 6.63021 16.2886 6.51146 16.9615C6.39271 17.6344 6.33334 18.3139 6.33334 19C6.33334 22.5361 7.56042 25.5313 10.0146 27.9854C12.4688 30.4396 15.4639 31.6667 19 31.6667C22.5361 31.6667 25.5313 30.4396 27.9854 27.9854C30.4396 25.5313 31.6667 22.5361 31.6667 19C31.6667 15.4639 30.4396 12.4688 27.9854 10.0146C25.5313 7.56044 22.5361 6.33335 19 6.33335C18.2875 6.33335 17.5948 6.39273 16.9219 6.51148C16.249 6.63023 15.5826 6.79516 14.9229 7.00627L12.5083 4.59169C13.5639 4.11669 14.6194 3.76044 15.675 3.52294C16.7306 3.28544 17.8389 3.16669 19 3.16669C21.1903 3.16669 23.2486 3.58231 25.175 4.41356C27.1014 5.24481 28.7771 6.37294 30.2021 7.79794C31.6271 9.22294 32.7552 10.8986 33.5865 12.825C34.4177 14.7514 34.8333 16.8097 34.8333 19C34.8333 21.1903 34.4177 23.2486 33.5865 25.175C32.7552 27.1014 31.6271 28.7771 30.2021 30.2021C28.7771 31.6271 27.1014 32.7552 25.175 33.5865C23.2486 34.4177 21.1903 34.8334 19 34.8334ZM8.70834 11.0834C8.04862 11.0834 7.48785 10.8525 7.02605 10.3906C6.56424 9.92884 6.33334 9.36808 6.33334 8.70835C6.33334 8.04863 6.56424 7.48787 7.02605 7.02606C7.48785 6.56426 8.04862 6.33335 8.70834 6.33335C9.36806 6.33335 9.92882 6.56426 10.3906 7.02606C10.8524 7.48787 11.0833 8.04863 11.0833 8.70835C11.0833 9.36808 10.8524 9.92884 10.3906 10.3906C9.92882 10.8525 9.36806 11.0834 8.70834 11.0834Z" fill="white"/>
</svg>
